<?xml version="1.0" encoding="UTF-8"?>
<svg xmlns="http://www.w3.org/2000/svg" xmlns:xlink="http://www.w3.org/1999/xlink" width="90px" height="90px" viewBox="0 0 90 90" version="1.1">
<g id="surface1">
<path style=" stroke:none;fill-rule:evenodd;fill:rgb(95.686275%,92.54902%,86.27451%);fill-opacity:1;" d="M 5.535156 13.699219 C 3.1875 14.535156 1.738281 15.808594 0.722656 17.929688 L 0.0859375 19.246094 L 0.0351562 44.382812 C -0.0078125 63.183594 0.03125 69.765625 0.1875 70.488281 C 0.765625 73.195312 2.863281 75.441406 5.597656 76.292969 C 6.699219 76.632812 7.371094 76.640625 45 76.640625 C 82.84375 76.640625 83.296875 76.636719 84.425781 76.289062 C 87.078125 75.46875 88.847656 73.632812 89.835938 70.683594 C 90.152344 69.738281 90.167969 68.6875 90.167969 44.558594 C 90.167969 28.269531 90.109375 19.515625 90 19.6875 C 89.863281 19.894531 89.828125 19.859375 89.828125 19.507812 C 89.824219 19.261719 89.558594 18.503906 89.230469 17.820312 C 88.433594 16.164062 87.15625 14.902344 85.441406 14.082031 L 84.109375 13.445312 L 45.261719 13.414062 C 8.335938 13.386719 6.371094 13.398438 5.535156 13.699219 M 9.390625 18.765625 C 9.464844 18.835938 17.089844 26.507812 26.335938 35.8125 C 43.582031 53.167969 43.679688 53.261719 45 53.261719 C 46.308594 53.261719 46.5 53.085938 61.035156 38.449219 C 68.832031 30.59375 76.460938 22.925781 77.992188 21.402344 L 80.769531 18.632812 L 45.015625 18.632812 C 25.347656 18.632812 9.316406 18.691406 9.390625 18.765625 M 0.0859375 44.910156 C 0.0859375 58.832031 0.105469 64.503906 0.132812 57.511719 C 0.15625 50.519531 0.15625 39.128906 0.132812 32.199219 C 0.105469 25.269531 0.0859375 30.988281 0.0859375 44.910156 M 73.476562 33.601562 C 67.335938 39.789062 62.3125 44.917969 62.3125 45.003906 C 62.3125 45.085938 67.355469 50.21875 73.519531 56.40625 L 84.726562 67.65625 L 84.726562 44.988281 C 84.726562 32.523438 84.707031 22.332031 84.683594 22.339844 C 84.660156 22.351562 79.617188 27.417969 73.476562 33.601562 M 5.273438 45 L 5.273438 67.570312 L 9.183594 63.683594 C 18.542969 54.382812 27.683594 45.152344 27.683594 45 C 27.683594 44.851562 18.671875 35.746094 9.273438 26.402344 L 5.273438 22.429688 L 5.273438 45 M 20.511719 60.058594 L 9.335938 71.277344 L 27.167969 71.324219 C 36.976562 71.347656 53.03125 71.347656 62.84375 71.324219 L 80.6875 71.277344 L 69.484375 60.070312 L 58.285156 48.863281 L 54.058594 53.066406 C 51.609375 55.5 49.539062 57.414062 49.128906 57.617188 C 47.128906 58.613281 45.082031 58.90625 43.195312 58.464844 C 40.96875 57.945312 40.484375 57.585938 35.925781 53.050781 L 31.6875 48.835938 L 20.511719 60.058594 "/>
</g>
</svg>
