<?xml version="1.0" encoding="utf-8"?>
<svg viewBox="90 41 458 497.32" xmlns="http://www.w3.org/2000/svg">
  <g transform="matrix(0.10000000149011612, 0, 0, -0.10000000149011612, 0, 618.9999855877833)" fill="#000000" stroke="none">
    <path d="M 4748.723 5193.528 C 4731.723 5169.528 4740.723 5151.528 4765.723 5160.528 C 4787.723 5169.528 4793.723 5191.528 4777.723 5205.528 C 4767.723 5213.528 4760.723 5211.528 4748.723 5193.528 Z" style="stroke: rgb(245, 237, 223); fill: rgb(245, 237, 223);"/>
    <path d="M 5189.836 5662.172 C 5181.516 5651.475 5168.443 5645.533 5161.311 5647.909 C 5135.164 5657.417 5041.27 5593.238 5009.179 5544.507 C 4991.353 5518.362 4949.754 5463.688 4917.664 5424.466 C 4884.387 5386.435 4857.05 5349.59 4857.05 5344.837 C 4857.05 5340.082 4830.901 5335.328 4798.81 5335.328 C 4746.516 5335.328 4731.065 5328.198 4664.509 5278.279 C 4622.91 5246.188 4571.802 5196.269 4549.221 5167.746 C 4527.828 5139.222 4489.795 5105.941 4466.023 5092.867 C 4442.252 5080.983 4401.843 5051.27 4375.696 5026.31 C 4349.548 5001.351 4306.762 4972.827 4279.425 4963.32 C 4219.998 4943.114 4133.237 4875.368 4118.974 4838.525 C 4102.336 4795.737 4105.9 4733.935 4126.105 4717.295 C 4136.802 4708.974 4141.557 4692.335 4137.991 4680.45 C 4133.237 4667.376 4135.614 4657.867 4142.744 4657.867 C 4166.516 4657.867 4157.007 4626.967 4089.262 4484.344 C 3998.933 4289.425 3962.089 4234.753 3905.04 4209.793 C 3880.082 4199.097 3858.687 4182.459 3858.687 4174.139 C 3858.687 4164.631 3850.367 4144.425 3839.67 4128.975 C 3830.162 4113.522 3823.03 4090.94 3825.408 4079.055 C 3826.596 4067.171 3814.71 4043.4 3799.26 4026.76 C 3763.606 3989.916 3594.833 3783.113 3581.76 3760.53 C 3577.006 3751.023 3523.524 3712.989 3462.907 3676.145 C 3403.482 3639.301 3329.792 3587.006 3300.081 3559.67 C 3244.218 3506.185 3156.268 3436.064 3086.146 3386.146 C 2966.105 3301.759 2862.702 3234.013 2808.03 3203.112 C 2649.955 3115.161 2581.022 3048.604 2491.882 2904.792 C 2343.317 2664.709 2289.834 2531.595 2289.834 2403.234 C 2288.644 2344.997 2282.702 2299.832 2272.004 2280.815 C 2262.496 2264.177 2255.365 2239.218 2254.176 2224.955 C 2254.176 2210.693 2249.423 2197.619 2242.29 2195.242 C 2236.348 2194.054 2219.709 2154.833 2206.636 2109.667 C 2193.561 2064.503 2176.923 2018.151 2168.603 2006.266 C 2037.865 1825.61 1828.685 1600.979 1758.562 1565.324 C 1740.734 1555.815 1714.587 1542.741 1701.513 1534.421 C 1688.438 1527.29 1632.576 1499.953 1576.717 1472.618 C 1520.856 1445.282 1463.807 1413.192 1450.733 1400.117 C 1436.471 1387.044 1385.365 1365.652 1337.824 1353.765 C 1242.74 1328.806 1232.045 1320.486 1172.618 1208.766 C 1135.774 1139.831 1098.929 1102.987 1028.807 1063.765 C 1006.224 1051.879 994.339 1038.806 1002.659 1036.429 C 1018.11 1030.487 1084.666 1061.388 1116.758 1089.913 C 1127.455 1099.421 1140.529 1104.175 1144.094 1100.609 C 1154.791 1089.913 1201.142 1150.526 1202.331 1177.865 C 1203.52 1189.749 1215.405 1212.332 1229.667 1226.594 C 1243.93 1242.045 1255.815 1261.06 1255.815 1268.191 C 1255.815 1281.265 1375.856 1345.446 1382.988 1337.126 C 1390.119 1329.994 1296.224 1238.478 1274.832 1230.159 C 1257.003 1224.217 1254.626 1219.462 1265.323 1208.766 C 1276.019 1198.069 1285.528 1201.634 1306.922 1220.652 C 1322.373 1234.913 1341.389 1246.798 1349.709 1246.798 C 1358.028 1246.798 1381.799 1264.626 1403.192 1284.831 C 1489.955 1371.593 1592.168 1460.733 1598.111 1454.79 C 1601.676 1451.225 1585.037 1427.454 1560.078 1402.495 C 1532.742 1373.971 1517.291 1347.823 1519.667 1334.749 C 1523.233 1316.921 1531.553 1322.864 1563.644 1365.652 C 1585.037 1395.364 1614.751 1422.701 1631.389 1427.454 L 1659.913 1434.586 L 1634.954 1400.117 C 1620.692 1379.913 1612.373 1362.085 1615.938 1358.519 C 1624.258 1350.199 1683.684 1438.151 1677.741 1448.849 C 1674.175 1453.602 1682.495 1466.675 1695.569 1478.561 C 1708.644 1490.445 1719.341 1496.388 1719.341 1490.445 C 1719.341 1485.691 1730.037 1494.011 1743.111 1509.462 C 1770.447 1542.741 1775.201 1524.912 1747.865 1486.88 C 1738.357 1472.618 1735.98 1460.733 1741.922 1460.733 C 1749.053 1460.733 1763.315 1473.808 1774.012 1490.445 C 1784.709 1507.085 1800.16 1520.159 1808.48 1520.159 C 1816.8 1520.159 1837.004 1542.741 1853.643 1571.267 C 1882.167 1617.619 1957.046 1700.815 1957.046 1682.987 C 1957.046 1679.422 1938.03 1644.954 1915.447 1606.921 C 1870.282 1532.044 1858.397 1482.125 1897.619 1532.044 C 1934.464 1578.397 2005.775 1723.396 1997.455 1735.281 C 1993.889 1741.224 2008.152 1766.185 2030.733 1791.144 C 2052.127 1814.914 2079.463 1848.191 2091.348 1864.831 L 2112.743 1894.545 L 2104.423 1864.831 C 2100.857 1848.191 2090.159 1826.798 2081.84 1817.291 C 2050.939 1780.447 1989.135 1660.406 1979.627 1617.619 C 1971.307 1577.21 1972.496 1576.021 1987.947 1596.225 C 1997.455 1609.299 2004.586 1627.127 2004.586 1635.447 C 2004.586 1643.766 2017.66 1658.028 2031.922 1668.726 C 2047.372 1678.233 2067.578 1709.134 2075.897 1737.659 C 2083.028 1764.995 2097.291 1800.652 2105.611 1816.103 C 2118.685 1842.25 2119.874 1837.496 2117.497 1774.504 L 2113.93 1704.381 L 2129.382 1751.921 C 2137.702 1778.07 2146.022 1813.726 2146.022 1832.741 C 2147.209 1852.946 2153.152 1864.831 2165.038 1864.831 C 2187.621 1864.831 2181.678 1849.381 2243.48 2087.086 C 2298.154 2298.643 2332.62 2374.71 2318.357 2254.668 C 2313.603 2209.504 2314.792 2185.734 2323.112 2185.734 C 2330.242 2185.734 2338.562 2195.242 2342.127 2207.127 C 2350.447 2235.653 2337.374 1949.217 2325.488 1837.496 C 2313.603 1740.036 2247.045 1520.159 2229.217 1520.159 C 2223.275 1520.159 2218.521 1514.216 2218.521 1507.085 C 2218.521 1499.953 2206.636 1477.373 2192.373 1457.168 C 2178.111 1436.963 2162.661 1392.987 2157.907 1358.519 C 2151.964 1312.167 2135.324 1276.511 2096.103 1220.652 C 2016.471 1107.741 1964.177 925.896 2010.528 925.896 C 2023.603 925.896 2027.168 934.215 2021.226 955.609 C 2010.528 999.585 2058.07 1126.757 2117.497 1211.144 C 2155.529 1265.814 2173.358 1302.658 2178.111 1345.446 C 2182.866 1382.291 2200.693 1425.077 2225.652 1461.922 C 2245.857 1492.823 2280.324 1571.267 2301.719 1635.447 C 2345.693 1774.504 2361.144 1918.316 2361.144 2224.955 C 2361.144 2397.292 2357.579 2446.021 2342.127 2478.111 C 2323.112 2517.332 2324.3 2523.275 2343.317 2569.628 C 2405.12 2712.251 2433.643 2770.489 2485.939 2851.309 C 2584.587 3005.816 2601.226 3029.588 2617.866 3029.588 C 2627.375 3029.588 2634.505 3036.719 2634.505 3045.038 C 2635.695 3061.677 2736.719 3136.554 2830.612 3190.038 C 2923.317 3243.522 3038.604 3323.152 3195.49 3442.006 C 3232.333 3470.53 3266.801 3493.112 3272.744 3493.112 C 3277.498 3493.112 3297.704 3512.127 3315.532 3534.711 C 3334.547 3558.482 3371.391 3591.761 3398.728 3608.4 C 3426.064 3626.227 3475.982 3657.128 3508.072 3678.522 C 3543.727 3701.105 3609.097 3766.474 3668.522 3837.785 C 3724.384 3905.531 3789.751 3981.597 3813.523 4007.744 C 3846.802 4042.212 3856.309 4061.228 3851.556 4080.243 C 3847.989 4096.882 3853.933 4113.522 3869.384 4127.786 C 3883.646 4140.86 3894.343 4157.499 3894.343 4165.819 C 3894.343 4175.326 3907.417 4184.834 3924.056 4189.589 C 3939.506 4193.154 3958.524 4203.852 3966.843 4213.359 C 3973.975 4222.868 3984.67 4227.621 3989.425 4224.056 C 3994.178 4221.678 4004.876 4233.563 4012.006 4250.203 C 4023.892 4276.351 4028.646 4278.728 4038.154 4264.466 C 4046.473 4250.203 4048.851 4251.392 4048.851 4268.032 C 4048.851 4278.728 4044.097 4290.614 4038.154 4295.366 C 4032.212 4298.933 4060.736 4373.811 4103.524 4462.95 C 4145.122 4552.09 4179.589 4631.72 4179.589 4640.039 C 4179.589 4650.736 4216.433 4656.678 4309.139 4663.81 C 4435.122 4670.942 4441.063 4673.318 4485.04 4711.351 C 4550.41 4770.778 4563.482 4782.663 4586.065 4807.623 C 4597.95 4819.508 4620.532 4843.277 4637.171 4859.916 C 4653.811 4875.368 4666.886 4894.384 4666.886 4901.514 C 4666.886 4907.458 4660.942 4903.892 4653.811 4893.195 C 4647.869 4881.31 4635.982 4871.803 4630.04 4871.803 C 4622.91 4871.803 4627.663 4890.819 4641.926 4914.59 C 4677.581 4974.015 4672.828 4989.466 4631.229 4949.057 C 4589.631 4909.834 4587.253 4919.344 4618.155 4991.844 C 4647.869 5058.402 4662.132 5133.28 4645.491 5133.28 C 4638.36 5133.28 4628.852 5122.582 4625.286 5109.507 C 4620.532 5096.432 4609.835 5086.925 4599.138 5088.113 C 4578.933 5091.68 4549.221 5015.614 4542.09 4939.549 C 4539.713 4902.704 4540.901 4896.762 4555.162 4908.647 C 4568.237 4919.344 4571.802 4916.968 4571.802 4892.007 C 4571.802 4869.425 4564.671 4859.916 4545.655 4856.352 L 4518.319 4851.597 L 4545.655 4849.221 C 4559.917 4849.221 4571.802 4842.09 4571.802 4834.958 C 4571.802 4818.318 4435.122 4757.704 4375.696 4747.009 C 4349.548 4742.254 4322.213 4730.369 4315.082 4722.05 C 4306.762 4712.539 4296.064 4705.409 4291.311 4707.786 C 4285.369 4708.974 4262.786 4705.409 4242.58 4700.655 C 4186.721 4687.581 4133.237 4730.369 4133.237 4787.417 C 4132.048 4821.885 4141.557 4837.335 4187.909 4880.122 C 4222.375 4913.401 4261.598 4937.172 4294.877 4945.492 C 4329.343 4953.812 4357.868 4971.638 4379.261 4996.598 C 4413.729 5038.195 4496.926 5092.867 4508.811 5082.171 C 4512.376 5077.418 4506.434 5039.385 4495.737 4995.409 C 4485.04 4951.434 4477.91 4913.401 4481.475 4911.024 C 4493.36 4899.139 4514.754 4960.943 4520.696 5023.934 C 4529.016 5111.886 4556.352 5154.672 4656.19 5240.246 C 4734.631 5307.99 4741.763 5311.558 4802.375 5311.558 C 4855.86 5311.558 4866.558 5315.123 4877.254 5338.894 C 4891.517 5368.607 4985.41 5486.269 5047.212 5549.262 C 5087.624 5590.861 5092.377 5593.238 5179.14 5594.426 C 5261.148 5595.615 5270.656 5593.238 5281.353 5570.656 C 5288.484 5554.017 5287.296 5527.869 5275.41 5491.024 C 5248.074 5398.321 5238.565 5382.868 5200.532 5361.476 C 5087.624 5299.671 5041.27 5247.377 5032.95 5173.689 L 5029.385 5139.222 L 5168.443 5139.222 C 5276.599 5139.222 5308.689 5142.787 5308.689 5154.672 C 5308.689 5180.82 5350.286 5164.181 5353.851 5136.845 C 5360.984 5089.302 5292.049 4990.655 5251.64 4990.655 C 5243.319 4990.655 5196.967 4966.886 5149.426 4938.361 C 5100.697 4908.647 5043.647 4877.745 5022.253 4868.235 C 4999.672 4858.728 4971.148 4843.277 4959.262 4833.77 C 4937.869 4817.131 4937.869 4814.753 4956.885 4787.417 L 4975.902 4758.893 L 4983.033 4786.229 C 4991.353 4817.131 5007.991 4820.696 5015.122 4792.172 C 5019.876 4771.967 5021.065 4771.967 5022.253 4792.172 C 5022.253 4802.868 5032.95 4812.376 5046.024 4812.376 C 5057.91 4812.376 5081.681 4825.451 5099.509 4842.09 C 5117.336 4858.728 5138.729 4871.803 5147.049 4871.803 C 5166.066 4871.803 5192.212 4900.327 5182.705 4909.834 C 5180.328 4913.401 5183.893 4919.344 5193.402 4922.91 C 5206.475 4927.664 5213.606 4903.892 5225.491 4814.753 C 5234.999 4750.573 5243.319 4667.376 5245.696 4628.155 C 5248.074 4588.934 5252.828 4531.884 5256.394 4502.171 C 5259.96 4472.458 5257.583 4427.294 5250.451 4402.336 C 5243.319 4373.811 5242.13 4350.04 5249.263 4335.778 C 5262.337 4313.194 5244.508 4196.719 5225.491 4177.704 C 5218.361 4170.574 5207.665 4172.95 5195.779 4182.459 C 5180.328 4195.532 5177.951 4193.154 5180.328 4163.441 C 5181.516 4144.425 5185.082 4124.219 5188.647 4117.088 C 5202.91 4089.752 5198.155 3962.58 5181.516 3936.434 C 5169.631 3919.793 5167.253 3897.211 5172.008 3873.44 C 5176.762 3849.669 5175.573 3837.785 5166.066 3837.785 C 5156.558 3837.785 5155.368 3818.768 5160.123 3772.417 C 5167.253 3718.932 5166.066 3707.046 5151.803 3707.046 C 5133.974 3707.046 5081.681 3602.457 5066.23 3537.088 C 5059.099 3508.562 5055.533 3504.998 5041.27 3516.882 C 5025.819 3529.956 5023.442 3521.637 5023.442 3457.457 C 5023.442 3396.842 5019.876 3384.958 5005.613 3390.9 C 4996.107 3394.466 4987.787 3392.088 4987.787 3386.146 C 4987.787 3379.014 4993.729 3374.26 4999.672 3374.26 C 5018.687 3374.26 5013.933 3336.227 4988.975 3287.496 C 4960.45 3230.448 4952.131 3184.095 4940.246 3017.702 C 4934.304 2913.112 4925.984 2870.325 4905.777 2833.48 C 4887.952 2799.014 4880.819 2765.735 4880.819 2711.062 C 4880.819 2668.276 4873.689 2621.922 4862.993 2601.719 C 4852.295 2580.325 4840.409 2504.258 4833.278 2397.292 C 4819.015 2186.923 4802.375 2049.053 4777.417 1948.027 C 4767.91 1905.242 4757.213 1795.898 4754.836 1704.381 C 4748.893 1485.691 4734.631 1427.454 4720.369 1567.702 C 4715.614 1623.561 4710.86 1687.742 4709.672 1710.322 C 4708.484 1732.905 4695.409 1773.315 4682.335 1800.652 C 4657.377 1848.191 4656.19 1855.324 4668.075 2121.553 C 4674.015 2271.306 4687.09 2447.21 4696.598 2512.577 C 4706.107 2577.948 4710.86 2664.709 4707.294 2703.931 C 4702.54 2760.98 4704.918 2781.186 4720.369 2795.448 C 4737.008 2813.276 4737.008 2819.218 4720.369 2858.439 C 4697.787 2913.112 4706.107 2926.185 4732.254 2876.267 C 4741.763 2856.061 4756.024 2839.423 4761.967 2839.423 C 4777.417 2839.423 4777.417 2844.176 4753.648 2892.906 C 4734.631 2933.317 4740.573 2967.784 4761.967 2934.505 C 4769.098 2924.997 4773.852 2922.619 4773.852 2929.751 C 4773.852 2935.693 4761.967 2954.711 4748.893 2968.972 C 4728.688 2990.366 4721.557 2992.743 4713.237 2979.67 C 4707.294 2971.35 4702.54 2954.711 4702.54 2944.014 C 4702.54 2932.128 4697.787 2922.619 4690.655 2922.619 C 4684.713 2922.619 4678.77 2896.472 4678.77 2863.194 C 4678.77 2831.104 4672.828 2803.768 4666.886 2803.768 C 4652.621 2803.768 4664.509 2708.686 4679.958 2692.046 C 4694.22 2675.407 4693.033 2589.834 4678.77 2589.834 C 4672.828 2589.834 4664.509 2604.096 4660.942 2623.112 C 4657.377 2640.939 4649.056 2671.841 4643.114 2690.857 C 4632.417 2724.135 4632.417 2724.135 4638.36 2682.537 C 4640.736 2658.767 4638.36 2637.373 4631.229 2634.997 C 4624.097 2632.619 4622.91 2601.719 4627.663 2551.8 C 4632.417 2491.185 4639.549 2470.98 4652.621 2470.98 C 4666.886 2470.98 4666.886 2468.603 4653.811 2451.964 C 4634.795 2428.193 4627.663 2306.963 4626.475 2001.512 C 4626.475 1836.307 4631.229 1763.808 4647.869 1684.176 C 4660.942 1627.127 4674.015 1583.152 4678.77 1585.529 C 4695.409 1596.225 4703.729 1537.987 4710.86 1369.217 L 4717.992 1199.258 L 4681.148 1199.258 C 4650.246 1199.258 4641.926 1206.389 4620.532 1250.364 C 4606.27 1278.888 4595.573 1314.544 4595.573 1329.994 C 4595.573 1368.029 4473.156 1805.407 4405.409 2007.456 C 4393.523 2043.111 4378.073 2103.725 4369.754 2141.759 C 4359.056 2195.242 4347.171 2219.013 4315.082 2247.538 C 4292.499 2267.742 4274.671 2291.512 4274.671 2301.02 C 4274.671 2317.66 4237.825 2407.988 4215.244 2449.586 C 4200.982 2474.545 4214.057 2505.447 4262.786 2572.005 C 4302.008 2625.489 4305.574 2637.373 4326.967 2832.291 C 4338.851 2930.939 4340.04 2983.235 4331.72 3008.194 C 4310.327 3068.808 4292.499 3039.095 4285.369 2927.374 C 4277.049 2812.088 4250.899 2670.652 4222.375 2595.776 C 4204.547 2547.045 4200.982 2551.8 4197.417 2631.431 C 4196.229 2657.578 4192.662 2727.7 4189.097 2785.939 C 4184.343 2885.775 4155.818 2982.047 4130.859 2982.047 C 4127.294 2982.047 4134.424 2959.464 4148.687 2932.128 C 4170.081 2889.34 4173.646 2858.439 4174.836 2739.586 L 4176.023 2598.154 L 4126.105 2548.234 C 4089.262 2510.201 4064.302 2495.938 4025.08 2488.809 C 3996.556 2484.054 3950.204 2467.415 3920.49 2450.775 C 3891.966 2434.136 3865.818 2424.627 3861.064 2428.193 C 3857.498 2431.759 3842.047 2427.004 3826.596 2417.496 C 3806.391 2404.422 3774.301 2399.668 3718.442 2400.857 C 3648.318 2402.045 3631.678 2398.48 3574.629 2365.202 C 3540.163 2343.807 3503.318 2329.544 3494.999 2333.111 C 3486.679 2336.677 3473.606 2330.734 3466.472 2321.225 C 3445.079 2297.455 3414.179 2301.02 3374.956 2331.922 C 3357.129 2346.184 3330.982 2366.391 3317.907 2375.899 C 3295.327 2392.537 3295.327 2392.537 3315.532 2368.767 C 3326.227 2355.694 3335.735 2339.054 3335.735 2331.922 C 3335.735 2324.791 3353.563 2312.905 3374.956 2304.585 C 3439.136 2278.439 3446.267 2268.931 3424.875 2238.028 C 3414.179 2220.202 3411.801 2209.504 3418.933 2209.504 C 3441.513 2209.504 3401.105 1870.774 3370.203 1799.464 C 3336.925 1722.208 3267.989 1628.314 3170.531 1524.912 C 3048.112 1395.364 2912.62 1171.921 2900.736 1076.838 C 2893.603 1030.487 2888.851 1020.979 2873.397 1028.11 C 2862.702 1031.675 2841.309 1038.806 2824.67 1041.183 C 2808.03 1044.749 2789.014 1054.257 2783.071 1062.577 C 2775.94 1070.896 2759.3 1080.405 2743.85 1085.158 C 2701.063 1099.421 2710.571 1157.658 2777.128 1289.585 C 2813.973 1362.085 2847.252 1453.602 2866.267 1529.667 C 2882.908 1597.413 2900.736 1660.406 2904.301 1671.102 C 2909.055 1682.987 2906.677 1687.742 2899.547 1682.987 C 2891.227 1678.233 2888.851 1719.83 2892.416 1814.914 C 2897.169 1934.954 2903.112 1963.479 2931.637 2025.284 C 2968.481 2106.102 3012.456 2154.833 2999.382 2102.537 C 2985.119 2041.923 2976.801 1924.258 2986.309 1924.258 C 2992.251 1924.258 3002.948 1938.519 3011.268 1956.347 C 3029.096 2002.701 3039.792 2081.143 3025.53 2072.823 C 3019.587 2068.069 3014.833 2088.274 3014.833 2119.176 C 3014.833 2164.34 3011.268 2171.472 2995.817 2165.529 C 2979.177 2159.586 2979.177 2163.152 2998.193 2198.808 C 3010.078 2223.767 3020.776 2233.275 3024.341 2223.767 C 3027.907 2213.069 3033.85 2216.635 3043.357 2235.653 C 3050.49 2249.914 3068.316 2267.742 3082.58 2274.872 C 3098.03 2280.815 3115.858 2301.02 3122.989 2318.848 C 3130.12 2337.864 3163.399 2371.144 3195.49 2394.915 C 3252.538 2437.701 3253.727 2437.701 3279.875 2416.307 C 3297.704 2400.857 3301.269 2399.668 3290.573 2412.742 C 3276.31 2432.946 3273.932 2450.775 3275.121 2556.555 C 3276.31 2601.719 3271.554 2614.792 3252.538 2625.489 C 3231.145 2637.373 3228.768 2633.808 3226.39 2599.341 C 3224.014 2547.045 3220.448 2504.258 3218.071 2487.619 C 3218.071 2479.3 3209.751 2470.98 3200.244 2467.415 C 3187.171 2462.66 3184.793 2470.98 3190.736 2509.012 C 3194.302 2538.725 3191.924 2555.366 3185.982 2550.612 C 3178.851 2547.045 3175.285 2562.497 3177.662 2587.456 C 3180.038 2621.922 3178.851 2626.677 3170.531 2607.66 C 3164.588 2594.588 3158.645 2568.44 3158.645 2548.234 C 3157.457 2507.823 3133.686 2460.283 3133.686 2497.127 C 3133.686 2510.201 3127.744 2514.955 3115.858 2511.389 C 3105.162 2506.635 3098.03 2488.809 3098.03 2463.85 C 3098.03 2441.266 3090.9 2412.742 3083.77 2399.668 C 3071.883 2380.653 3071.883 2371.144 3083.77 2350.938 C 3102.785 2322.414 3096.842 2314.094 3059.997 2311.718 C 3043.357 2310.528 3026.718 2320.037 3018.398 2334.299 C 3005.325 2355.694 3004.136 2352.128 3002.948 2308.151 C 3002.948 2242.783 2981.554 2195.242 2955.408 2203.562 C 2942.334 2208.316 2935.202 2203.562 2935.202 2189.299 C 2936.391 2110.857 2930.448 2088.274 2913.809 2095.406 C 2899.547 2100.16 2895.981 2090.651 2895.981 2049.053 C 2895.981 2018.151 2886.473 1980.119 2872.21 1957.537 C 2860.325 1936.142 2843.686 1877.905 2835.366 1829.176 C 2828.235 1778.07 2809.218 1717.454 2791.391 1687.742 C 2761.677 1633.069 2613.112 1479.75 2479.996 1364.463 C 2417.004 1309.79 2390.858 1274.134 2337.374 1175.487 C 2301.719 1107.741 2264.874 1034.051 2257.742 1011.471 C 2249.423 988.889 2236.348 962.74 2230.405 954.42 C 2212.578 934.215 2103.235 919.953 2084.216 936.592 C 2072.332 944.912 2061.636 944.912 2044.997 933.027 C 2031.922 923.518 2005.775 912.823 1986.759 910.445 C 1966.553 906.88 2006.963 905.691 2075.897 908.069 C 2238.725 914.011 2248.234 917.576 2267.25 977.003 C 2294.588 1064.953 2413.44 1272.946 2462.168 1321.675 C 2488.317 1346.634 2537.045 1389.422 2570.324 1414.381 C 2628.562 1459.545 2756.922 1595.035 2812.784 1671.102 C 2830.612 1696.062 2841.309 1730.528 2844.874 1766.185 C 2846.063 1797.087 2853.194 1839.872 2859.137 1858.889 C 2874.587 1905.242 2867.455 1731.716 2849.629 1597.413 C 2832.989 1477.373 2822.293 1445.282 2755.735 1308.601 C 2693.932 1181.43 2673.725 1068.519 2711.76 1068.519 C 2740.284 1068.519 2813.973 1020.979 2805.653 1007.905 C 2802.087 1001.962 2828.235 997.208 2865.078 997.208 C 2900.736 997.208 2934.014 1001.962 2937.58 1009.094 C 2941.146 1015.036 2938.768 1020.979 2932.826 1020.979 C 2913.809 1020.979 2917.375 1093.478 2937.58 1127.946 C 2947.088 1144.585 2967.293 1182.618 2982.743 1212.332 C 3050.49 1344.257 3107.538 1425.077 3193.112 1514.216 C 3297.704 1622.372 3373.769 1734.093 3399.915 1814.914 C 3409.424 1845.816 3422.499 1914.749 3429.628 1968.234 C 3464.095 2229.709 3468.85 2253.481 3494.999 2286.758 C 3514.015 2310.528 3530.654 2318.848 3563.932 2318.848 C 3594.833 2318.848 3605.531 2323.602 3601.966 2334.299 C 3591.268 2361.637 3645.941 2380.653 3724.384 2377.087 C 3777.866 2374.71 3805.203 2379.464 3827.785 2393.726 C 3845.614 2405.611 3862.253 2411.553 3867.008 2406.8 C 3871.762 2403.234 3886.023 2406.8 3900.286 2416.307 C 3914.547 2425.816 3969.22 2447.21 4020.326 2465.038 C 4071.434 2482.865 4123.728 2505.447 4135.614 2514.955 C 4147.499 2526.84 4155.818 2529.217 4155.818 2520.897 C 4155.818 2512.577 4164.138 2506.635 4173.646 2506.635 C 4183.155 2506.635 4191.475 2495.938 4191.475 2482.865 C 4191.475 2469.792 4196.229 2449.586 4202.172 2437.701 C 4225.94 2391.349 4248.523 2331.922 4255.654 2296.265 C 4260.409 2273.684 4279.425 2247.538 4298.442 2233.275 C 4334.097 2208.316 4357.868 2138.193 4357.868 2056.184 C 4357.868 2027.66 4364.999 2005.078 4374.507 1999.136 C 4391.147 1989.627 4485.04 1687.742 4536.147 1480.937 C 4550.41 1421.512 4561.105 1345.446 4559.917 1308.601 C 4555.162 1204.012 4558.729 1146.96 4568.237 1156.469 C 4572.991 1161.224 4575.368 1186.184 4572.991 1211.144 C 4569.425 1269.38 4582.498 1271.756 4611.024 1215.897 C 4635.982 1164.789 4637.171 1146.96 4613.4 1156.469 C 4603.892 1160.035 4595.573 1157.658 4595.573 1152.904 C 4595.573 1146.96 4569.425 1135.077 4536.147 1126.757 C 4504.057 1118.437 4479.097 1108.929 4482.663 1106.552 C 4493.36 1094.667 4653.811 1143.395 4659.755 1160.035 C 4664.509 1171.921 4679.958 1175.487 4704.918 1173.11 L 4744.138 1169.545 L 4746.516 1252.741 C 4750.081 1358.519 4771.475 1572.455 4788.114 1682.987 C 4798.81 1747.167 4798.81 1775.693 4788.114 1798.274 C 4777.417 1823.232 4778.607 1848.191 4797.622 1927.824 C 4827.335 2050.242 4845.164 2194.054 4855.86 2387.783 C 4862.993 2509.012 4868.934 2545.856 4891.517 2589.834 C 4911.721 2627.865 4920.041 2665.898 4921.23 2720.57 C 4923.606 2770.489 4930.737 2808.522 4943.811 2828.727 C 4960.45 2852.496 4965.205 2892.906 4967.582 3024.834 C 4971.148 3162.703 4975.902 3199.547 4997.295 3243.522 C 5010.368 3273.235 5025.819 3312.455 5029.385 3330.284 C 5034.139 3348.113 5042.458 3365.941 5048.401 3369.507 C 5054.345 3373.072 5059.099 3390.9 5059.099 3408.727 C 5059.099 3442.006 5106.64 3595.326 5132.787 3645.243 C 5139.918 3659.506 5155.368 3670.202 5164.877 3669.014 C 5180.328 3666.637 5185.082 3682.087 5192.212 3742.703 C 5217.172 3974.465 5245.696 4156.311 5259.96 4182.459 C 5271.845 4201.474 5277.788 4249.015 5277.788 4313.194 C 5278.976 4369.057 5282.542 4420.161 5286.107 4426.105 C 5290.862 4433.236 5289.672 4465.326 5283.73 4497.417 C 5277.788 4530.696 5271.845 4591.311 5269.468 4634.097 C 5265.903 4676.885 5259.96 4766.024 5255.205 4831.392 L 5245.696 4951.434 L 5283.73 4974.015 C 5330.083 5001.351 5380 5083.36 5380 5132.09 C 5380 5157.049 5371.68 5173.689 5351.476 5186.763 C 5330.083 5201.024 5099.705 5131.218 5108.566 5199.484 C 5116.121 5257.669 5258.982 5344.921 5312.467 5478.037 C 5313.656 5481.602 5319.554 5548.552 5312.422 5558.059 C 5261.317 5619.863 5284.919 5619.385 5284.919 5628.894 C 5284.919 5646.721 5244.508 5680 5223.115 5680 C 5212.418 5680 5198.155 5671.68 5189.836 5662.172 Z" style="stroke-linejoin: bevel; stroke-linecap: round; stroke-width: 20px; mix-blend-mode: darken; stroke: rgb(245, 237, 223); fill: rgb(245, 237, 223);"/>
    <path d="M 2179.301 1921.882 C 2175.735 1912.373 2172.168 1915.939 2172.168 1929.012 C 2170.981 1942.085 2174.546 1949.217 2178.111 1944.462 C 2181.678 1940.897 2182.866 1930.2 2179.301 1921.882 Z" style="stroke-linejoin: bevel; stroke-linecap: round; stroke-width: 20px; mix-blend-mode: darken; stroke: rgb(245, 237, 223); fill: rgb(245, 237, 223);"/>
    <path d="M 4678.77 2530.405 C 4678.77 2524.462 4674.015 2518.52 4666.886 2518.52 C 4660.942 2518.52 4654.999 2524.462 4654.999 2530.405 C 4654.999 2537.537 4660.942 2542.291 4666.886 2542.291 C 4674.015 2542.291 4678.77 2537.537 4678.77 2530.405 Z" style="stroke-linejoin: bevel; stroke-linecap: round; stroke-width: 20px; mix-blend-mode: darken; stroke: rgb(245, 237, 223); fill: rgb(245, 237, 223);"/>
    <path d="M 4281.803 2654.013 C 4277.049 2630.242 4269.918 2613.603 4266.353 2618.357 C 4262.786 2621.922 4263.975 2643.316 4267.54 2668.276 C 4272.295 2692.046 4279.425 2708.686 4282.991 2703.931 C 4286.557 2700.366 4285.369 2678.972 4281.803 2654.013 Z" style="stroke-linejoin: bevel; stroke-linecap: round; stroke-width: 20px; mix-blend-mode: darken; stroke: rgb(245, 237, 223); fill: rgb(245, 237, 223);"/>
    <path d="M 2113.094 1414.476 C 2096.3 1397.681 2067.51 1382.087 2050.716 1382.087 C 2026.725 1379.688 2001.534 1360.495 1958.351 1311.312 C 1894.774 1238.138 1873.181 1224.945 1883.977 1265.729 C 1892.374 1298.117 1873.181 1295.717 1839.592 1259.732 C 1823.998 1242.937 1804.805 1230.942 1796.409 1234.541 C 1788.011 1238.138 1761.621 1224.945 1735.231 1205.751 C 1710.039 1186.558 1684.848 1169.763 1677.652 1169.763 C 1671.654 1169.763 1650.061 1156.568 1630.868 1140.973 C 1612.875 1125.38 1587.684 1115.782 1575.689 1118.181 C 1563.694 1121.78 1537.302 1114.584 1515.711 1103.787 L 1477.324 1083.394 L 1485.72 1120.582 C 1496.517 1169.763 1477.324 1169.763 1371.761 1115.782 C 1326.179 1092.99 1279.396 1073.798 1269.8 1073.798 C 1259.003 1073.798 1233.812 1065.401 1212.22 1054.606 C 1191.826 1043.809 1141.445 1024.616 1101.861 1012.62 C 1062.274 1001.823 1040.681 991.029 1053.877 991.029 C 1094.662 989.828 1278.197 1048.607 1370.563 1091.792 C 1418.546 1114.584 1460.529 1133.777 1462.929 1133.777 C 1466.528 1133.777 1464.129 1119.382 1460.529 1102.587 C 1452.134 1071.399 1453.334 1071.399 1492.919 1078.596 C 1515.711 1083.394 1551.697 1088.194 1573.29 1090.592 C 1593.682 1091.792 1623.672 1104.988 1639.266 1119.382 C 1654.861 1133.777 1671.654 1145.773 1677.652 1145.773 C 1682.45 1145.773 1705.242 1158.967 1726.834 1175.761 C 1748.425 1192.555 1778.416 1205.751 1794.01 1205.751 C 1809.604 1205.751 1829.997 1212.947 1838.394 1221.345 C 1851.589 1233.341 1853.988 1232.14 1847.989 1215.347 C 1833.595 1173.363 1863.585 1182.959 1921.164 1239.339 C 1969.147 1286.121 1982.341 1293.319 1991.938 1278.925 C 2000.335 1265.729 2007.532 1270.527 2029.125 1305.314 C 2043.52 1330.505 2062.713 1349.698 2072.309 1349.698 C 2090.302 1349.698 2158.678 1430.07 2149.082 1439.667 C 2146.682 1442.066 2129.888 1431.268 2113.094 1414.476 Z" style="stroke: rgb(245, 237, 223); fill: rgb(245, 237, 223);"/>
  </g>
</svg>